REM DIRINDEX 1\2,1\3,1\4,1\5
REM DIRNAME cjc004,folder01,folder02,folder03,folder04
TITLE ""
FILE "1Q_t_0602-0611.mp3" MP3
  TRACK 01 AUDIO
    TITLE "3:cjc004_2708"
    INDEX 01 00:00:00
  TRACK 02 AUDIO
    TITLE "0:"
    INDEX 01 00:01:11
  TRACK 03 AUDIO
    TITLE "4:cjc004_2709"
    INDEX 01 00:01:46
  TRACK 04 AUDIO
    TITLE "0:"
    INDEX 01 00:03:23
  TRACK 05 AUDIO
    TITLE "5:cjc004_2710"
    INDEX 01 00:03:55
  TRACK 06 AUDIO
    TITLE "0:"
    INDEX 01 00:07:74
  TRACK 07 AUDIO
    TITLE "3:cjc004_2711"
    INDEX 01 00:08:52
  TRACK 08 AUDIO
    TITLE "0:"
    INDEX 01 00:10:00
  TRACK 09 AUDIO
    TITLE "4:cjc004_2712"
    INDEX 01 00:10:19
  TRACK 10 AUDIO
    TITLE "0:"
    INDEX 01 00:11:40
  TRACK 11 AUDIO
    TITLE "5:cjc004_2713"
    INDEX 01 00:11:60
  TRACK 12 AUDIO
    TITLE "0:"
    INDEX 01 00:15:60
  TRACK 13 AUDIO
    TITLE "3:cjc004_2714"
    INDEX 01 00:16:36
  TRACK 14 AUDIO
    TITLE "0:"
    INDEX 01 00:17:53
  TRACK 15 AUDIO
    TITLE "4:cjc004_2715"
    INDEX 01 00:18:07
  TRACK 16 AUDIO
    TITLE "0:"
    INDEX 01 00:19:34
  TRACK 17 AUDIO
    TITLE "5:cjc004_2716"
    INDEX 01 00:19:58
  TRACK 18 AUDIO
    TITLE "0:"
    INDEX 01 00:24:57
  TRACK 19 AUDIO
    TITLE "3:cjc004_2717"
    INDEX 01 00:25:35
  TRACK 20 AUDIO
    TITLE "0:"
    INDEX 01 00:26:38
  TRACK 21 AUDIO
    TITLE "4:cjc004_2718"
    INDEX 01 00:26:67
  TRACK 22 AUDIO
    TITLE "0:"
    INDEX 01 00:28:00
  TRACK 23 AUDIO
    TITLE "5:cjc004_2719"
    INDEX 01 00:28:29
  TRACK 24 AUDIO
    TITLE "0:"
    INDEX 01 00:31:61
  TRACK 25 AUDIO
    TITLE "3:cjc004_2720"
    INDEX 01 00:32:39
  TRACK 26 AUDIO
    TITLE "0:"
    INDEX 01 00:33:48
  TRACK 27 AUDIO
    TITLE "4:cjc004_2721"
    INDEX 01 00:34:00
  TRACK 28 AUDIO
    TITLE "0:"
    INDEX 01 00:35:25
  TRACK 29 AUDIO
    TITLE "5:cjc004_2722"
    INDEX 01 00:35:51
  TRACK 30 AUDIO
    TITLE "0:"
    INDEX 01 00:40:54
  TRACK 31 AUDIO
    TITLE "3:cjc004_2723"
    INDEX 01 00:41:32
  TRACK 32 AUDIO
    TITLE "0:"
    INDEX 01 00:42:33
  TRACK 33 AUDIO
    TITLE "4:cjc004_2724"
    INDEX 01 00:42:63
  TRACK 34 AUDIO
    TITLE "0:"
    INDEX 01 00:44:14
  TRACK 35 AUDIO
    TITLE "5:cjc004_2725"
    INDEX 01 00:44:42
  TRACK 36 AUDIO
    TITLE "0:"
    INDEX 01 00:49:70
  TRACK 37 AUDIO
    TITLE "3:cjc004_2726"
    INDEX 01 00:50:48
  TRACK 38 AUDIO
    TITLE "0:"
    INDEX 01 00:51:65
  TRACK 39 AUDIO
    TITLE "4:cjc004_2727"
    INDEX 01 00:52:18
  TRACK 40 AUDIO
    TITLE "0:"
    INDEX 01 00:53:35
  TRACK 41 AUDIO
    TITLE "5:cjc004_2728"
    INDEX 01 00:53:62
  TRACK 42 AUDIO
    TITLE "0:"
    INDEX 01 00:59:20
  TRACK 43 AUDIO
    TITLE "3:cjc004_2729"
    INDEX 01 00:59:73
  TRACK 44 AUDIO
    TITLE "0:"
    INDEX 01 01:00:72
  TRACK 45 AUDIO
    TITLE "4:cjc004_2730"
    INDEX 01 01:01:25
  TRACK 46 AUDIO
    TITLE "0:"
    INDEX 01 01:02:48
  TRACK 47 AUDIO
    TITLE "5:cjc004_2731"
    INDEX 01 01:03:04
  TRACK 48 AUDIO
    TITLE "0:"
    INDEX 01 01:07:64
  TRACK 49 AUDIO
    TITLE "3:cjc004_2732"
    INDEX 01 01:08:40
  TRACK 50 AUDIO
    TITLE "0:"
    INDEX 01 01:09:65
  TRACK 51 AUDIO
    TITLE "4:cjc004_2733"
    INDEX 01 01:10:16
  TRACK 52 AUDIO
    TITLE "0:"
    INDEX 01 01:12:19
  TRACK 53 AUDIO
    TITLE "5:cjc004_2734"
    INDEX 01 01:12:46
  TRACK 54 AUDIO
    TITLE "0:"
    INDEX 01 01:16:36
  TRACK 55 AUDIO
    TITLE "3:cjc004_2735"
    INDEX 01 01:17:14
  TRACK 56 AUDIO
    TITLE "0:"
    INDEX 01 01:18:35
  TRACK 57 AUDIO
    TITLE "4:cjc004_2736"
    INDEX 01 01:18:60
  TRACK 58 AUDIO
    TITLE "0:"
    INDEX 01 01:20:14
  TRACK 59 AUDIO
    TITLE "5:cjc004_2737"
    INDEX 01 01:20:40
  TRACK 60 AUDIO
    TITLE "0:"
    INDEX 01 01:25:15
